<?xml version="1.0" encoding="utf-8"?>
<!-- Generator: Adobe Illustrator 19.2.1, SVG Export Plug-In . SVG Version: 6.00 Build 0)  -->
<svg version="1.1" id="Layer_1" xmlns="http://www.w3.org/2000/svg" xmlns:xlink="http://www.w3.org/1999/xlink" x="0px" y="0px"
	 viewBox="0 0 387 71.9" style="enable-background:new 0 0 387 71.9;" xml:space="preserve">
<style type="text/css">
	.st0{fill:#F3EA00;}
	.st1{fill:#D5D10E;}
	.st2{fill:#B8B308;}
	.st3{fill:none;}
	.st4{fill:#F26531;}
	.st5{fill:#4B3900;}
</style>
<rect x="0.7" y="34" class="st0" width="53.2" height="16.9"/>
<path class="st1" d="M53.9,26.6V34H0.7v-7.5c0-3.1,0.5-6.2,1.5-9h50.1C53.4,20.4,53.9,23.4,53.9,26.6z"/>
<path class="st2" d="M52.4,17.6H2.3c0.1-0.3,0.2-0.6,0.4-0.9C6.6,6.9,16.1,0,27.3,0C38.5,0,48.1,6.9,52,16.7
	C52.2,17,52.3,17.3,52.4,17.6z"/>
<rect x="0.7" y="51" class="st3" width="53.2" height="0"/>
<circle class="st4" cx="40.5" cy="57.4" r="3.6"/>
<path class="st5" d="M142.8,49.6c0.8,0,0.7-1.9,0.7-1.9v-9.8c0-3-2.4-5.4-5.6-5.4c-3.2,0-6,1.3-8.2,3.4c-0.9-2.3-2.9-3.4-5.2-3.4
	c-2.8,0-6,1.4-7.9,3.4l0-3h-5.3v1.8h3.3c0,0,0,0.1,0,1.5v11.3c0,1.9-1.5,1.9-1.5,1.9h-1.8v1.8h8.2v-1.8H116c0.6,0,0.6-1.9,0.6-1.9
	v-9.4c2.3-2.8,5.5-3.9,7.5-3.9c2,0,3.9,1.4,3.9,3.4c0,0,0,7.9,0,9.9s-1.6,2-1.6,2h-1.7v1.8h8.2v-1.8h-3.4c0.8,0,0.6-2,0.6-2V38
	c1.7-1.9,4.9-3.6,7.6-3.6c1.7,0,3.8,1,3.8,3.4v10c0,0,0,1.9-1.5,1.9c-1.5,0-1.8,0-1.8,0v1.8h7.7v-1.8H142.8z M269.2,49.6
	c0.8,0,0.6-2,0.6-2v-8.3c0-3.3-1.6-6.8-8.9-6.8c-2.8,0-7,1.4-8.8,3.4l0-3h-5.3v1.8h3.3c0,0,0,0.1,0,1.5v11.3c0,1.9-1.5,1.9-1.5,1.9
	h-1.8v1.8h8.1v-1.8h-3.5c0.6,0,0.6-1.9,0.6-1.9v-9.4c2.3-2.8,6.5-3.9,8.5-3.9c2,0,7.2,0.4,7.2,4.4c0,0,0,6.9,0,8.8s-1.6,2-1.6,2
	h-1.7v1.8h8.1v-1.8H269.2z M383.6,49.6c0.8,0,0.5-2,0.5-2v-8.3c0-3.3-1.6-6.8-8.9-6.8c-2.8,0-7,1.4-8.8,3.4l0-3h-5.3v1.8h3.3
	c0,0,0,0.1,0,1.5v11.3c0,1.9-1.5,1.9-1.5,1.9h-1.8v1.8h8.2v-1.8h-3.5c0.6,0,0.6-1.9,0.6-1.9v-9.4c2.3-2.8,6.5-3.9,8.5-3.9
	c2,0,7.2,0.4,7.2,4.4c0,0,0,6.9,0,8.8s-1.6,2-1.6,2h-1.7v1.8h8.2v-1.8H383.6z M244.4,35.3L244.4,35.3L244.4,35.3
	C244.4,35.3,244.4,35.3,244.4,35.3z M98.5,34.7v-1.8h-5l0,3.9c-0.4-0.6-1-1.1-1.5-1.6c-2.1-1.8-5-2.9-8.1-2.9c-3.2,0-6,1.1-8.1,2.9
	c-2.1,1.8-3.4,4.3-3.4,7.1c0,2.8,1.3,5.3,3.4,7.1c2.1,1.8,5,2.9,8.1,2.9c3.1,0,6-1.1,8.1-2.9c0.6-0.5,1.1-1,1.6-1.6v0.9c0,0,0,0,0,0
	c0,0,0,3,2.5,3h2.4v-1.8h-1.1c0,0-1.7,0.1-1.7-1.5V34.8L98.5,34.7z M90.8,47.8c-1.7,1.5-4.1,2.4-6.8,2.4s-5.1-0.9-6.8-2.4
	c-1.7-1.5-2.7-3.4-2.8-5.6c0-2.2,1-4.1,2.8-5.6c1.7-1.5,4.1-2.4,6.8-2.4h0c2.7,0,5.1,0.9,6.8,2.4c1.7,1.5,2.8,3.4,2.8,5.6
	C93.5,44.4,92.5,46.3,90.8,47.8z M168.9,38.3c-0.6-1.2-1.5-2.3-2.5-3.2s-2.3-1.6-3.7-2.1c-1.4-0.5-2.9-0.8-4.4-0.8
	c-1.6,0-3.1,0.3-4.4,0.8c-1.4,0.5-2.6,1.2-3.7,2.1c-1,0.9-1.9,2-2.5,3.2c-0.6,1.2-0.9,2.5-0.9,3.9c0,2.8,1.3,5.3,3.4,7.1
	c1.1,0.9,2.3,1.6,3.7,2.1c1.4,0.5,2.9,0.8,4.4,0.8s3.1-0.3,4.4-0.8c1.4-0.5,2.6-1.2,3.7-2.1c1-0.9,1.9-2,2.5-3.2
	c0.6-1.2,0.9-2.5,0.9-3.9C169.9,40.8,169.5,39.5,168.9,38.3z M167.2,45.3c-0.5,0.9-1.1,1.8-2,2.5c-0.9,0.7-1.9,1.3-3.1,1.8
	c-1.2,0.4-2.4,0.6-3.8,0.6c-1.3,0-2.6-0.2-3.8-0.6c-1.2-0.4-2.2-1-3-1.8c-0.9-0.7-1.5-1.6-2-2.5c-0.5-1-0.7-2-0.7-3.1
	c0-2.2,1-4.1,2.7-5.6c0.9-0.7,1.9-1.3,3-1.7c1.2-0.4,2.4-0.7,3.8-0.7c0,0,0,0,0,0c1.3,0,2.6,0.2,3.8,0.7c1.2,0.4,2.2,1,3.1,1.7
	c0.9,0.7,1.5,1.6,2,2.5c0.5,0.9,0.7,2,0.7,3C167.9,43.3,167.6,44.3,167.2,45.3z M223.3,41.8c0-2.6-1.4-5-3.5-6.7
	c-2.1-1.7-5-2.8-8.1-2.8c-1.6,0-3.1,0.3-4.4,0.8c-1.4,0.5-2.6,1.2-3.7,2.1s-1.9,2-2.5,3.2c-0.6,1.2-0.9,2.5-0.9,3.9
	c0,1.4,0.3,2.7,0.9,3.9c0.6,1.2,1.5,2.3,2.5,3.2c2.1,1.8,5,2.9,8.1,2.9h0.1c4,0,8.7-1.3,11.2-6l-1.7-0.9c-1,2-2.5,3.2-4.2,4
	c-1.7,0.8-3.5,1-5.4,1h0c-2.7,0-5.1-0.9-6.8-2.4c-1.6-1.3-2.6-3.1-2.7-5h21.1V41.8z M202.3,40.8c0.4-1.6,1.3-3,2.6-4.2
	c0.9-0.7,1.9-1.3,3-1.7c1.2-0.4,2.4-0.7,3.8-0.7c1.3,0,2.6,0.2,3.8,0.6c1.2,0.4,2.2,1,3.1,1.7c1.4,1.2,2.4,2.7,2.6,4.2H202.3z
	 M306.9,41.8c0-2.6-1.3-5-3.4-6.7c-2.1-1.7-5-2.8-8.1-2.8c-1.6,0-3.1,0.3-4.4,0.8s-2.6,1.2-3.7,2.1c-1,0.9-1.9,2-2.5,3.2
	c-0.6,1.2-0.9,2.5-0.9,3.9c0,1.4,0.3,2.7,0.9,3.9c0.6,1.2,1.5,2.3,2.5,3.2c2.1,1.8,5,2.9,8.1,2.9h0.1c4,0,8.7-1.3,11.2-6l-1.7-0.9
	c-1,2-2.5,3.2-4.2,4c-1.7,0.8-3.5,1-5.4,1h0c-2.7,0-5.1-0.9-6.8-2.4c-1.6-1.3-2.6-3.1-2.7-5h21.1V41.8z M285.9,40.8
	c0.3-1.6,1.3-3,2.6-4.2c0.9-0.7,1.9-1.3,3-1.7c1.2-0.4,2.4-0.7,3.8-0.7c1.3,0,2.6,0.2,3.8,0.6c1.2,0.4,2.2,1,3.1,1.7
	c1.4,1.2,2.4,2.7,2.6,4.2H285.9z M359.3,41.8c0-2.6-1.4-5-3.5-6.7c-2.1-1.7-5-2.8-8.1-2.8c-1.6,0-3.1,0.3-4.4,0.8s-2.6,1.2-3.7,2.1
	s-1.9,2-2.5,3.2s-0.9,2.5-0.9,3.9c0,1.4,0.3,2.7,0.9,3.9c0.6,1.2,1.5,2.3,2.5,3.2c2.1,1.8,5,2.9,8.1,2.9h0.1c4,0,8.7-1.3,11.2-6
	l-1.7-0.9c-1,2-2.5,3.2-4.2,4c-1.7,0.8-3.5,1-5.4,1h0c-2.7,0-5.1-0.9-6.8-2.4c-1.6-1.3-2.6-3.1-2.7-5h21.1V41.8z M338.3,40.8
	c0.3-1.6,1.2-3,2.6-4.2c0.9-0.7,1.9-1.3,3-1.7c1.2-0.4,2.4-0.7,3.8-0.7c1.4,0,2.6,0.2,3.8,0.6c1.2,0.4,2.2,1,3.1,1.7
	c1.4,1.2,2.4,2.7,2.6,4.2H338.3z M244.4,35.3C244.4,35.3,244.4,35.3,244.4,35.3L244.4,35.3L244.4,35.3z"/>
<path class="st5" d="M333.8,49.7c0,0-1.7,0.1-1.7-1.5v-9.8h0l0.1-13.1h-4.9v1.8l2.8,0.1v9.6c-0.4-0.6-1-1.1-1.5-1.6
	c-1-0.9-2.3-1.6-3.7-2.1s-2.9-0.8-4.4-0.8s-3.1,0.3-4.4,0.8s-2.6,1.2-3.7,2.1c-1,0.9-1.9,2-2.5,3.2c-0.6,1.2-0.9,2.5-0.9,3.9
	c0,2.8,1.3,5.3,3.4,7.1c1.1,0.9,2.3,1.6,3.7,2.1c1.4,0.5,2.9,0.8,4.4,0.8s3.1-0.3,4.4-0.8c1.4-0.5,2.6-1.2,3.7-2.1
	c0.6-0.5,1.1-1,1.5-1.6v0.8l0,0c0,0,0,3,2.5,3h2.4v-1.8H333.8z M329.3,45.3c-0.5,1-1.1,1.8-2,2.5c-0.9,0.7-1.9,1.3-3.1,1.8
	c-1.1,0.4-2.4,0.6-3.8,0.6c-1.4,0-2.6-0.2-3.8-0.6c-1.1-0.4-2.2-1-3-1.8s-1.5-1.6-2-2.5c-0.5-0.9-0.7-2-0.7-3c0-2.2,1-4.1,2.8-5.6
	c0.9-0.7,1.9-1.3,3-1.7c1.2-0.4,2.4-0.7,3.8-0.7h0c1.3,0,2.6,0.2,3.8,0.7c1.2,0.4,2.2,1,3.1,1.7c0.9,0.7,1.5,1.6,2,2.5
	c0.5,0.9,0.7,2,0.7,3C330,43.3,329.8,44.3,329.3,45.3z"/>
<path class="st5" d="M244.4,35.3v3.3h-1.9v-2.5c-1.2-1.3-3.1-1.7-4.9-1.6c-2,0.1-6,2-7.2,4.2v9c0,0,0,1.9-0.6,1.9c0.6,0,3.5,0,3.5,0
	v1.8h-8.1v-1.8h1.8c0,0,1.5,0,1.5-1.9V36.3c0-1.5,0-1.5,0-1.5h-3.3v-1.8h5.3l0,3c1.8-1.9,4.9-3.4,7.6-3.4
	C240.7,32.5,243.4,33.4,244.4,35.3C244.4,35.3,244.4,35.3,244.4,35.3z"/>
<path class="st5" d="M197.7,49.7c0,0-1.7,0.1-1.7-1.5v-9.6h0l0-13.2h-5v1.8l2.8,0.1v10.1c-0.5-0.8-1.2-1.5-1.9-2.1
	c-1-0.9-2.3-1.6-3.7-2.1c-1.4-0.5-2.9-0.8-4.4-0.8c-1.6,0-3.1,0.3-4.4,0.8c-1.4,0.5-2.6,1.2-3.7,2.1c-1,0.9-1.9,2-2.5,3.2
	c-0.6,1.2-0.9,2.5-0.9,3.9c0,2.8,1.3,5.3,3.4,7.1c1.1,0.9,2.3,1.6,3.7,2.1c1.4,0.5,2.9,0.8,4.4,0.8s3.1-0.3,4.4-0.8
	c1.4-0.5,2.6-1.2,3.7-2.1c0.7-0.6,1.4-1.3,1.9-2.1v1.4c0,0,0,0,0,0c0,0,0,3,2.5,3h2.4v-1.8H197.7z M192.8,45.3
	c-0.5,0.9-1.2,1.8-2,2.5c-1.7,1.5-4.1,2.4-6.8,2.4h-0.1c-2.7,0-5.1-0.9-6.8-2.4c-0.9-0.7-1.5-1.6-2-2.5c-0.5-1-0.7-2-0.7-3.1
	c0-2.2,1-4.1,2.7-5.6c0.9-0.7,1.9-1.3,3-1.7c1.2-0.4,2.4-0.7,3.8-0.7c1.3,0,2.6,0.2,3.8,0.7c1.2,0.4,2.2,1,3,1.7
	c0.9,0.7,1.5,1.6,2,2.5c0.5,0.9,0.7,2,0.7,3C193.5,43.3,193.3,44.3,192.8,45.3z"/>
<polygon class="st5" points="45.1,37.4 45.1,35.5 39.7,35.5 44.3,30.9 43,29.6 28.4,44.2 28.4,33.5 42.8,19 41.5,17.7 37.1,22 
	37.1,15.5 35.2,15.5 35.2,23.9 28.4,30.8 28.4,13.9 32.6,9.7 31.2,8.3 27.4,12.2 23.6,8.4 22.3,9.7 26.4,13.9 26.4,30.8 19.6,23.9 
	19.6,15.5 17.7,15.5 17.7,22 13.3,17.7 12,19 26.4,33.5 26.4,44.2 11.8,29.6 10.4,30.9 15,35.5 9.7,35.5 9.7,37.4 16.9,37.4 
	26.4,46.9 26.4,71.9 28.4,71.9 28.4,46.9 37.8,37.4 "/>
</svg>
